HIERARCHY
ROOT Hips
{
	OFFSET 0.000000 0.000000 0.000000
	CHANNELS 6 Xposition Yposition Zposition Xrotation Yrotation Zrotation
	JOINT LeftUpLeg_virtual
	{
		OFFSET 0.000000 0.000000 0.000000
		CHANNELS 3 Xrotation Yrotation Zrotation
		JOINT LeftUpLeg
		{
			OFFSET 10.205400 -3.823500 0.155100
			CHANNELS 3 Xrotation Yrotation Zrotation
			JOINT LeftLeg
			{
				OFFSET 0.708757 -12.982077 0.567790
				CHANNELS 3 Xrotation Yrotation Zrotation
				JOINT LeftFoot
				{
					OFFSET -0.708756 -10.717838 -2.184338
					CHANNELS 3 Xrotation Yrotation Zrotation
					JOINT LeftToeBase
					{
						OFFSET 0.108149 -7.191104 7.560241
						CHANNELS 3 Xrotation Yrotation Zrotation
						JOINT LeftToe_End
						{
							OFFSET 0.070230 0.081724 4.490308
							CHANNELS 3 Xrotation Yrotation Zrotation
							End Site
							{
								OFFSET 0 0 0
							}
						}
					}
				}
			}
		}
	}
	JOINT RightUpLeg_virtual
	{
		OFFSET 0.000000 0.000000 0.000000
		CHANNELS 3 Xrotation Yrotation Zrotation
		JOINT RightUpLeg
		{
			OFFSET -10.205400 -3.823500 0.005500
			CHANNELS 3 Xrotation Yrotation Zrotation
			JOINT RightLeg
			{
				OFFSET -0.708756 -12.982134 0.610632
				CHANNELS 3 Xrotation Yrotation Zrotation
				JOINT RightFoot
				{
					OFFSET 0.708754 -10.717769 -1.945823
					CHANNELS 3 Xrotation Yrotation Zrotation
					JOINT RightToeBase
					{
						OFFSET -0.108140 -7.191069 7.372968
						CHANNELS 3 Xrotation Yrotation Zrotation
						JOINT RightToe_End
						{
							OFFSET -0.070227 0.081735 4.479403
							CHANNELS 3 Xrotation Yrotation Zrotation
							End Site
							{
								OFFSET 0 0 0
							}
						}
					}
				}
			}
		}
	}
	JOINT Spine_virtual
	{
		OFFSET 0.000000 0.000000 0.000000
		CHANNELS 3 Xrotation Yrotation Zrotation
		JOINT Spine
		{
			OFFSET 0.000000 6.876099 0.125700
			CHANNELS 3 Xrotation Yrotation Zrotation
			JOINT Spine1
			{
				OFFSET 0.000000 5.730043 0.104720
				CHANNELS 3 Xrotation Yrotation Zrotation
				JOINT Spine1_split
				{
					OFFSET 0.000000 5.730043 0.104720
					CHANNELS 3 Xrotation Yrotation Zrotation
					JOINT Spine2
					{
						OFFSET 0.000000 5.730043 0.104720
						CHANNELS 3 Xrotation Yrotation Zrotation
						JOINT Neck_virtual
						{
							OFFSET 0.000000 0.000000 0.000000
							CHANNELS 3 Xrotation Yrotation Zrotation
							JOINT Neck
							{
								OFFSET 0.000000 10.314075 0.188496
								CHANNELS 3 Xrotation Yrotation Zrotation
								JOINT Head
								{
									OFFSET 0.000000 7.643700 -2.377400
									CHANNELS 3 Xrotation Yrotation Zrotation
									JOINT HeadTop_End
									{
										OFFSET 0.000000 43.788605 -13.619600
										CHANNELS 3 Xrotation Yrotation Zrotation
										End Site
										{
											OFFSET 0 0 0
										}
									}
								}
							}
						}
						JOINT LeftShoulder_virtual
						{
							OFFSET 0.000000 0.000000 0.000000
							CHANNELS 3 Xrotation Yrotation Zrotation
							JOINT LeftShoulder
							{
								OFFSET 2.196100 4.412489 0.087492
								CHANNELS 3 Xrotation Yrotation Zrotation
								JOINT LeftShoulder_split
								{
									OFFSET 2.196100 4.412489 0.087492
									CHANNELS 3 Xrotation Yrotation Zrotation
									JOINT LeftArm
									{
										OFFSET 8.771219 -2.981674 -0.026999
										CHANNELS 3 Xrotation Yrotation Zrotation
										JOINT LeftForeArm
										{
											OFFSET 8.512804 0.000000 -0.000000
											CHANNELS 3 Xrotation Yrotation Zrotation
											JOINT LeftHand
											{
												OFFSET 18.484802 0.000000 -0.000000
												CHANNELS 3 Xrotation Yrotation Zrotation
												End Site
												{
													OFFSET 0 0 0
												}
											}
										}
									}
								}
							}
						}
						JOINT RightShoulder_virtual
						{
							OFFSET 0.000000 0.000000 0.000000
							CHANNELS 3 Xrotation Yrotation Zrotation
							JOINT RightShoulder
							{
								OFFSET -2.196100 4.412496 0.070690
								CHANNELS 3 Xrotation Yrotation Zrotation
								JOINT RightShoulder_split
								{
									OFFSET -2.196100 4.412496 0.070690
									CHANNELS 3 Xrotation Yrotation Zrotation
									JOINT RightArm
									{
										OFFSET -8.771282 -2.981682 -0.094208
										CHANNELS 3 Xrotation Yrotation Zrotation
										JOINT RightForeArm
										{
											OFFSET -8.494598 0.000000 0.000000
											CHANNELS 3 Xrotation Yrotation Zrotation
											JOINT RightHand
											{
												OFFSET -18.483803 0.000000 0.000001
												CHANNELS 3 Xrotation Yrotation Zrotation
												End Site
												{
													OFFSET 0 0 0
												}
											}
										}
									}
								}
							}
						}
					}
				}
			}
		}
	}
}
MOTION
Frames: 10
Frame Time: 0.03333333
4.769959 31.211010 -1.147060 0.000000 0.000000 0.000000 7.880473 -30.085658 -14.021617 -29.416604 -3.276795 23.677517 62.233241 4.984053 15.905818 -39.286032 35.707935 -15.433366 -4.810570 0.381785 1.505869 0.000000 0.000000 0.000000 9.669258 -27.337540 -14.959224 -21.110303 7.265184 24.186769 -4.105239 3.164165 0.921330 20.337139 11.950880 0.418244 -5.579718 1.787890 0.317995 0.000000 0.000000 0.000000 4.987241 -33.527759 -14.853129 16.675565 -6.354171 10.932722 14.596094 -0.525930 10.534258 1.359875 -0.470255 0.333949 0.000000 0.000000 0.000000 12.597356 -0.666153 9.471224 -9.075644 -5.808957 2.651870 36.298853 -14.204684 29.961356 0.000000 0.000000 0.000000 14.358009 -1.282611 9.682710 2.255385 -20.168857 -12.012515 0.437779 -0.966569 -0.454064 -35.466553 -26.708615 -56.686359 -1.108645 -14.798894 -1.415551 0.000000 0.000000 0.000000 12.273866 -0.963897 10.121027 2.432056 6.484392 11.210252 -3.641990 3.075679 -0.555064 0.522386 40.495297 27.072539 1.648770 22.445921 1.438560 0.000000 0.000000 0.000000 
4.723838 31.223301 -1.154251 0.000000 0.000000 0.000000 7.934650 -29.814971 -13.991553 -29.663908 -3.194843 23.809737 62.229895 4.882841 15.934211 -38.997105 35.404026 -15.496198 -4.764428 0.390594 1.476048 0.000000 0.000000 0.000000 9.723608 -26.997771 -14.924648 -21.061843 7.212477 24.167243 -4.025594 3.089690 0.883410 20.220198 11.775679 0.302443 -5.531451 1.766835 0.310732 0.000000 0.000000 0.000000 5.045478 -33.210719 -14.810611 16.562696 -6.419411 11.082195 14.499175 -0.590503 10.589213 1.350937 -0.479222 0.328731 0.000000 0.000000 0.000000 12.509825 -0.709130 9.519746 -8.950930 -5.762369 2.692513 36.440948 -14.345824 29.987235 0.000000 0.000000 0.000000 14.247423 -1.319178 9.713148 2.239778 -20.185975 -12.112642 0.404283 -0.994569 -0.432524 -35.167408 -27.060991 -56.981574 -1.199590 -14.983473 -1.438420 0.000000 0.000000 0.000000 12.193268 -1.000927 10.156189 2.563951 6.691734 10.678874 -3.570690 3.154531 -0.610246 0.925282 40.237693 27.310271 1.601777 22.979772 1.386947 0.000000 0.000000 0.000000 
4.675839 31.247128 -1.159515 0.000000 0.000000 0.000000 7.989523 -29.485968 -13.941214 -29.868175 -3.172232 23.896771 62.132646 4.778715 15.994170 -38.643820 35.060331 -15.578577 -4.693040 0.400635 1.423032 0.000000 0.000000 0.000000 9.779878 -26.596512 -14.867524 -21.006011 7.183835 24.127891 -3.947098 2.986995 0.824130 20.124833 11.537686 0.176720 -5.498574 1.736462 0.317790 0.000000 0.000000 0.000000 5.099857 -32.850147 -14.747796 16.436492 -6.472228 11.237078 14.397504 -0.651243 10.651416 1.337976 -0.499350 0.334613 0.000000 0.000000 0.000000 12.420185 -0.750245 9.576100 -8.829095 -5.727038 2.736530 36.586752 -14.494030 29.998355 0.000000 0.000000 0.000000 14.131040 -1.350651 9.751204 2.229209 -20.188337 -12.203391 0.381270 -1.019786 -0.421072 -34.775888 -27.352589 -57.271041 -1.300213 -15.180104 -1.463659 0.000000 0.000000 0.000000 12.110419 -1.035888 10.196769 2.706754 6.863453 10.151415 -3.501485 3.215534 -0.663723 1.338333 40.017395 27.538348 1.563199 23.526926 1.343464 0.000000 0.000000 0.000000 
4.626247 31.279793 -1.161192 0.000000 0.000000 0.000000 8.037682 -29.116946 -13.881109 -30.002586 -3.217014 23.945813 61.971584 4.677974 16.073696 -38.262112 34.700783 -15.686573 -4.612011 0.411293 1.356301 0.000000 0.000000 0.000000 9.826431 -26.150124 -14.800993 -20.939820 7.185428 24.067872 -3.879649 2.864960 0.748783 20.061891 11.253142 0.051863 -5.468926 1.698287 0.335230 0.000000 0.000000 0.000000 5.149558 -32.455799 -14.671704 16.294357 -6.515749 11.400114 14.290753 -0.708773 10.720380 1.314955 -0.529961 0.326327 0.000000 0.000000 0.000000 12.329390 -0.790195 9.641218 -8.715260 -5.704904 2.782054 36.747681 -14.641996 29.995691 0.000000 0.000000 0.000000 14.008586 -1.377268 9.798181 2.225835 -20.170652 -12.274745 0.370238 -1.040016 -0.423977 -34.304956 -27.588367 -57.550436 -1.405266 -15.383476 -1.489199 0.000000 0.000000 0.000000 12.026351 -1.070038 10.243213 2.860249 6.997852 9.623631 -3.446441 3.268113 -0.705826 1.750819 39.831454 27.752976 1.535198 24.085409 1.307620 0.000000 0.000000 0.000000 
4.575875 31.315922 -1.156452 0.000000 0.000000 0.000000 8.067062 -28.733516 -13.823855 -30.060947 -3.329759 23.963681 61.794798 4.593483 16.158168 -37.907553 34.352245 -15.804984 -4.523659 0.419010 1.282820 0.000000 0.000000 0.000000 9.860403 -25.665450 -14.738679 -20.854907 7.212514 23.989455 -3.824755 2.730828 0.665835 20.036806 10.945633 -0.053223 -5.445447 1.655856 0.354909 0.000000 0.000000 0.000000 5.191899 -32.030449 -14.591118 16.139565 -6.555479 11.577965 14.178050 -0.764556 10.795450 1.276627 -0.573492 0.319979 0.000000 0.000000 0.000000 12.236995 -0.830018 9.715128 -8.608881 -5.697789 2.823751 36.932848 -14.784626 29.985241 0.000000 0.000000 0.000000 13.880482 -1.401455 9.853296 2.230735 -20.128106 -12.323926 0.367602 -1.052202 -0.447875 -33.771631 -27.773055 -57.815639 -1.504454 -15.590557 -1.510650 0.000000 0.000000 0.000000 11.942275 -1.103898 10.296710 3.025452 7.104846 9.093888 -3.401711 3.331652 -0.736824 2.131331 39.661040 27.984154 1.518676 24.631885 1.277718 0.000000 0.000000 0.000000 
4.523833 31.351425 -1.147318 0.000000 0.000000 0.000000 8.072379 -28.339777 -13.782215 -30.032991 -3.486013 23.966944 61.618504 4.543518 16.229612 -37.659078 34.021681 -15.888891 -4.445623 0.421247 1.217814 0.000000 0.000000 0.000000 9.873133 -25.157313 -14.695273 -20.735314 7.255846 23.900765 -3.799906 2.590425 0.580643 20.029900 10.637780 -0.131704 -5.422830 1.611585 0.366002 0.000000 0.000000 0.000000 5.223919 -31.579834 -14.519510 15.980411 -6.597535 11.777282 14.061196 -0.820688 10.875350 1.249928 -0.620267 0.307177 0.000000 0.000000 0.000000 12.141703 -0.871613 9.797479 -8.510802 -5.704925 2.860966 37.147357 -14.915031 29.972940 0.000000 0.000000 0.000000 13.746898 -1.426854 9.915255 2.242836 -20.062219 -12.352146 0.385054 -1.068270 -0.480252 -33.197421 -27.916773 -58.058193 -1.585195 -15.778919 -1.524812 0.000000 0.000000 0.000000 11.858196 -1.138381 10.357871 3.199166 7.193813 8.569206 -3.372281 3.412266 -0.752161 2.447613 39.478514 28.266823 1.510745 25.159157 1.250528 0.000000 0.000000 0.000000 
4.472873 31.383999 -1.134186 0.000000 0.000000 0.000000 8.054576 -27.933192 -13.768774 -29.930791 -3.654204 23.975783 61.447968 4.536481 16.271515 -37.522327 33.703206 -15.934577 -4.387756 0.417603 1.173238 0.000000 0.000000 0.000000 9.860868 -24.629997 -14.679550 -20.575509 7.300122 23.810094 -3.809258 2.444893 0.498937 20.002436 10.343008 -0.193680 -5.377819 1.569363 0.359784 0.000000 0.000000 0.000000 5.247989 -31.098309 -14.466967 15.827104 -6.649348 12.005062 13.939275 -0.878845 10.958074 1.224588 -0.682453 0.291066 0.000000 0.000000 0.000000 12.043588 -0.917047 9.885890 -8.417062 -5.723961 2.890293 37.387913 -15.028303 29.973910 0.000000 0.000000 0.000000 13.609910 -1.457432 9.981924 2.258037 -19.977127 -12.364887 0.426967 -1.066301 -0.519039 -32.609092 -28.032251 -58.276369 -1.638359 -15.919730 -1.528898 0.000000 0.000000 0.000000 11.771828 -1.175745 10.425066 3.377223 7.275831 8.062354 -3.359245 3.494374 -0.747593 2.664499 39.261239 28.633347 1.502066 25.667019 1.223530 0.000000 0.000000 0.000000 
4.423195 31.414446 -1.117523 0.000000 0.000000 0.000000 8.015661 -27.508339 -13.785943 -29.786134 -3.820222 24.001882 61.286673 4.575008 16.272330 -37.445303 33.375115 -15.951980 -4.350815 0.408237 1.145172 0.000000 0.000000 0.000000 9.819390 -24.087963 -14.694129 -20.373105 7.333309 23.719490 -3.849445 2.295399 0.428321 19.938849 10.066786 -0.249027 -5.301048 1.530235 0.332799 0.000000 0.000000 0.000000 5.264639 -30.576168 -14.440140 15.690256 -6.718101 12.262380 13.815036 -0.940001 11.040570 1.194120 -0.737462 0.281754 0.000000 0.000000 0.000000 11.945491 -0.966418 9.977234 -8.326393 -5.747666 2.910053 37.647111 -15.119833 29.998966 0.000000 0.000000 0.000000 13.471487 -1.494951 10.049621 2.272954 -19.877970 -12.371630 0.488952 -1.042500 -0.550985 -32.033447 -28.131715 -58.468127 -1.663192 -15.998986 -1.521991 0.000000 0.000000 0.000000 11.683616 -1.217350 10.495522 3.553008 7.352432 7.585175 -3.354171 3.559365 -0.732297 2.761442 38.995698 29.096719 1.485307 26.156848 1.194575 0.000000 0.000000 0.000000 
4.375479 31.447247 -1.097708 0.000000 0.000000 0.000000 7.955982 -27.047020 -13.830685 -29.621499 -3.972541 24.050302 61.137816 4.652654 16.228794 -37.346788 33.006876 -15.968183 -4.312910 0.398516 1.118498 0.000000 0.000000 0.000000 9.744014 -23.534453 -14.737747 -20.127492 7.348569 23.626840 -3.906685 2.148312 0.377651 19.832354 9.809173 -0.307668 -5.198712 1.490032 0.288528 0.000000 0.000000 0.000000 5.273168 -29.995770 -14.437845 15.579317 -6.808484 12.540999 13.691208 -1.002232 11.117673 1.161768 -0.827221 0.274680 0.000000 0.000000 0.000000 11.851545 -1.019232 10.067105 -8.232203 -5.769560 2.912977 37.924192 -15.185899 30.064580 0.000000 0.000000 0.000000 13.332178 -1.539365 10.111931 2.283740 -19.774352 -12.384385 0.556244 -0.981770 -0.564783 -31.483006 -28.227403 -58.633663 -1.667472 -16.012670 -1.508655 0.000000 0.000000 0.000000 11.592579 -1.262838 10.565188 3.717479 7.424184 7.153202 -3.355229 3.585420 -0.700733 2.720394 38.693401 29.668942 1.450285 26.638001 1.166023 0.000000 0.000000 0.000000 
4.330277 31.485813 -1.076275 0.000000 0.000000 0.000000 7.865983 -26.546592 -13.890875 -29.447992 -4.106136 24.105278 60.985974 4.778194 16.145479 -37.182713 32.569952 -15.977735 -4.223183 0.392186 1.062652 0.000000 0.000000 0.000000 9.625980 -22.963996 -14.796990 -19.830478 7.345212 23.514415 -3.961787 2.008177 0.349121 19.704070 9.559637 -0.369065 -5.088985 1.441705 0.233022 0.000000 0.000000 0.000000 5.255856 -29.353243 -14.456751 15.498893 -6.921335 12.824028 13.570808 -1.062504 11.184812 1.127608 -0.930868 0.262363 0.000000 0.000000 0.000000 11.763370 -1.071888 10.150358 -8.128310 -5.781742 2.893748 38.220294 -15.223713 30.184665 0.000000 0.000000 0.000000 13.197880 -1.587232 10.161727 2.288400 -19.675764 -12.410618 0.621584 -0.890198 -0.558655 -30.959892 -28.319356 -58.770349 -1.660999 -15.971120 -1.491429 0.000000 0.000000 0.000000 11.504211 -1.308005 10.628499 3.865344 7.486590 6.775458 -3.354360 3.580453 -0.657560 2.546206 38.376531 30.351779 1.390386 27.095991 1.145375 0.000000 0.000000 0.000000 
